<svg width="100" height="100" viewBox="0 0 100 100" fill="none" xmlns="http://www.w3.org/2000/svg">
<g clip-path="url(#clip0)">
<path fill="#2d3a66" fill-rule="evenodd" clip-rule="evenodd" d="M1 0H0V100H0.333008H1H20.333H20.833H40.333H40.833H60.333H60.833H80.333H80.833H100.333V99H80.833V80.1667H100.333V79.6667H80.833V60.1667H100.333V59.6667H80.833V40.1667H100.333V39.6667H80.833V20.1667H100.333V19.6667H80.833V0H80.333V19.6667H60.833V0H60.333V19.6667H40.833V0H40.333V19.6667H20.833V0H20.333V19.6667H1V0ZM80.333 20.1667H60.833V39.6667H80.333V20.1667ZM80.333 40.1667H60.833V59.6667H80.333V40.1667ZM80.333 60.1667H60.833V79.6667H80.333V60.1667ZM80.333 80.1667H60.833V99H80.333V80.1667ZM60.333 80.1667V99H40.833V80.1667H60.333ZM60.333 60.1667V79.6667H40.833V60.1667H60.333ZM60.333 40.1667V59.6667H40.833V40.1667H60.333ZM60.333 20.1667V39.6667H40.833V20.1667H60.333ZM40.333 20.1667H20.833V39.6667H40.333V20.1667ZM40.333 40.1667H20.833V59.6667H40.333V40.1667ZM40.333 60.1667H20.833V79.6667H40.333V60.1667ZM40.333 80.1667H20.833V99H40.333V80.1667ZM20.333 80.1667V99H1V80.1667H20.333ZM20.333 60.1667V79.6667H1V60.1667H20.333ZM20.333 40.1667V59.6667H1V40.1667H20.333ZM20.333 20.1667V39.6667H1V20.1667H20.333Z" fill-opacity="0.26"/>
</g>
<defs>
<clipPath id="clip0">
<rect width="100" height="100" fill="white"/>
</clipPath>
</defs>
</svg>